<svg width="30" height="30" viewBox="0 0 30 30" fill="none" xmlns="http://www.w3.org/2000/svg">
<g clip-path="url(#clip0_870_349)">
<path d="M30 28.8427L21.4846 20.3273C23.3719 18.1722 24.5165 15.3507 24.5165 12.2582C24.5165 5.4899 19.0298 0 12.2582 0C5.48672 0 0 5.4899 0 12.2582C0 19.0266 5.4899 24.5165 12.2582 24.5165C15.3507 24.5165 18.1722 23.3688 20.3273 21.4814L28.8427 30L30 28.8427ZM1.63549 12.2582C1.63549 6.39851 6.4017 1.63549 12.2582 1.63549C18.1148 1.63549 22.8842 6.4017 22.8842 12.2582C22.8842 18.1148 18.118 22.8842 12.2582 22.8842C6.39851 22.8842 1.63549 18.118 1.63549 12.2582Z" fill="white"/>
</g>
<defs>
<clipPath id="clip0_870_349">
<rect width="30" height="30" fill="white"/>
</clipPath>
</defs>
</svg>
