<svg width="17" height="20" viewBox="0 0 17 20" fill="none" xmlns="http://www.w3.org/2000/svg">
<path fill-rule="evenodd" clip-rule="evenodd" d="M13.25 0C11.4551 0 10 1.45507 10 3.25C10 3.44591 10.0173 3.63776 10.0506 3.82412L5.31991 7.13558C5.29587 7.1524 5.27312 7.17038 5.25168 7.18939C4.69993 6.75747 4.00503 6.5 3.25 6.5C1.45507 6.5 0 7.9551 0 9.75C0 11.5449 1.45507 13 3.25 13C4.00503 13 4.69993 12.7425 5.25168 12.3106C5.27312 12.3296 5.29587 12.3476 5.31991 12.3644L10.0506 15.6759C10.0173 15.8622 10 16.0541 10 16.25C10 18.0449 11.4551 19.5 13.25 19.5C15.0449 19.5 16.5 18.0449 16.5 16.25C16.5 14.4551 15.0449 13 13.25 13C12.1972 13 11.2613 13.5006 10.6674 14.2767L6.18806 11.1411C6.38809 10.7194 6.5 10.2478 6.5 9.75C6.5 9.2522 6.38809 8.7806 6.18806 8.3589L10.6674 5.2233C11.2613 5.99942 12.1972 6.5 13.25 6.5C15.0449 6.5 16.5 5.04493 16.5 3.25C16.5 1.45507 15.0449 0 13.25 0ZM11.5 3.25C11.5 2.2835 12.2835 1.5 13.25 1.5C14.2165 1.5 15 2.2835 15 3.25C15 4.2165 14.2165 5 13.25 5C12.2835 5 11.5 4.2165 11.5 3.25ZM3.25 8C2.2835 8 1.5 8.7835 1.5 9.75C1.5 10.7165 2.2835 11.5 3.25 11.5C4.2165 11.5 5 10.7165 5 9.75C5 8.7835 4.2165 8 3.25 8ZM13.25 14.5C12.2835 14.5 11.5 15.2835 11.5 16.25C11.5 17.2165 12.2835 18 13.25 18C14.2165 18 15 17.2165 15 16.25C15 15.2835 14.2165 14.5 13.25 14.5Z" fill="#BABABA"/>
</svg>
