<svg width="28" height="30" viewBox="0 0 28 30" fill="none" xmlns="http://www.w3.org/2000/svg">
<g clip-path="url(#clip0_870_351)">
<path d="M14 12.3772C10.4044 12.3772 7.48035 9.6016 7.48035 6.18858C7.48035 2.77556 10.4076 0 14 0C17.5924 0 20.5196 2.77556 20.5196 6.18858C20.5196 9.6016 17.5956 12.3772 14 12.3772ZM14 1.54638C11.3041 1.54638 9.10945 3.62957 9.10945 6.18858C9.10945 8.74758 11.3041 10.8277 14 10.8277C16.6959 10.8277 18.8905 8.74453 18.8905 6.18553C18.8905 3.62652 16.6991 1.54638 14 1.54638Z" fill="white"/>
<path d="M28 29.319H0L1.84439 20.0133C2.56736 17.2652 5.11223 15.3772 8.04912 15.3772H19.9509C22.8878 15.3772 25.4359 17.2652 26.146 19.9706L28 29.319ZM1.96649 27.7726H26.0367L24.5554 20.3C24.0349 18.3297 22.1391 16.9236 19.9509 16.9236H8.04912C5.86091 16.9236 3.96511 18.3297 3.43493 20.3457L1.96649 27.7726Z" fill="white"/>
</g>
<defs>
<clipPath id="clip0_870_351">
<rect width="28" height="29.319" fill="white"/>
</clipPath>
</defs>
</svg>
