<svg width="325" height="41" viewBox="0 0 325 41" fill="none" xmlns="http://www.w3.org/2000/svg">
<g clip-path="url(#clip0_1_80)">
<path d="M75.9463 40.3725V40.1634C74.8317 39.5065 74.1871 38.3562 74.0125 35.8137V23.3235H91.7191V17.6765H74.0125V6.2745H91.333C93.945 6.44444 95.1234 7.07189 95.8016 8.15685H96.0164V0.627441H65.6326V0.836592C66.7472 1.49672 67.3918 2.64378 67.5664 5.18626V35.817C67.3918 38.3595 66.7472 39.5065 65.6326 40.1667V40.3758H75.9497L75.9463 40.3725Z" fill="black"/>
<path d="M8.37991 23.3235H28.8798V35.8137C28.7052 38.3562 28.0606 39.5033 26.946 40.1634V40.3725H37.2631V40.1634C36.1484 39.5065 35.5038 38.3562 35.3292 35.8137V5.18626C35.5038 2.64378 36.1484 1.49672 37.2631 0.836592V0.627441H26.946V0.836592C28.0606 1.49672 28.7052 2.64378 28.8798 5.18626V17.6765H8.37991V5.18626C8.55449 2.64378 9.1991 1.49672 10.3137 0.836592V0.627441H0V0.836592C1.11463 1.49672 1.75924 2.64378 1.93382 5.18626V35.817C1.75924 38.3595 1.11463 39.5065 0 40.1667V40.3758H10.3137V40.1667C9.1991 39.5098 8.55449 38.3595 8.37991 35.817V23.3268V23.3235Z" fill="black"/>
<path d="M233.137 40.3725V40.1634C232.022 39.5065 231.377 38.3562 231.203 35.8137V5.18626C231.377 2.64378 232.022 1.49672 233.137 0.836592V0.627441H222.823V0.836592C223.938 1.49672 224.582 2.64378 224.757 5.18626V35.817C224.582 38.3595 223.938 39.5065 222.823 40.1667V40.3758H233.137V40.3725Z" fill="black"/>
<path d="M157.016 17.0719C150.207 15.085 148.572 13.0359 148.572 10.4967C148.572 7.05882 152.765 5.72876 155.374 5.72876C159.96 5.72876 162.421 7.79739 164.019 11.0621L164.19 11.1863L168.273 5.11111C168.273 5.11111 163.871 0 155.085 0C149.183 0 141.908 3.76471 141.908 10.4967C141.908 17.2288 145.782 19.6928 150.865 21.5229C156.422 23.5229 163.24 24.7647 163.24 29.7843C163.24 32.2582 160.685 34.9902 155.639 34.9902C151.362 34.9902 145.856 32.4281 145.094 26.6307L144.923 26.5065L140.535 33.0359C142.059 36.1471 146.776 40.9935 155.858 40.9935C164.939 40.9935 169.905 34.915 169.905 29.7843C169.905 21.415 162.673 18.7222 157.019 17.0719H157.016Z" fill="black"/>
<path d="M260.438 0C247.09 0 239.593 9.51307 239.593 20.5C239.593 31.4869 247.09 41 260.438 41C273.787 41 281.284 31.4869 281.284 20.5C281.284 9.51307 273.787 0 260.438 0ZM260.438 35.5621C251.689 35.5621 246.683 29.281 246.683 20.5C246.683 11.719 251.686 5.43791 260.438 5.43791C269.191 5.43791 274.193 11.719 274.193 20.5C274.193 29.281 269.191 35.5621 260.438 35.5621Z" fill="black"/>
<path d="M298.054 40.3725V40.1634C296.939 39.5065 296.295 38.3562 296.12 35.8137V11.2974L316.62 40.3725H325V40.1634C323.885 39.5065 323.241 38.3562 323.066 35.8137V5.18626C323.241 2.64378 323.885 1.49672 325 0.836592V0.627441H316.62V29.7026L296.12 0.627441H287.74V0.836592C288.855 1.49672 289.5 2.64378 289.674 5.18626V35.817C289.5 38.3595 288.855 39.5065 287.74 40.1667V40.3758H298.054V40.3725Z" fill="black"/>
<path d="M185.066 23.3235H205.566V35.8137C205.392 38.3562 204.747 39.5033 203.632 40.1634V40.3725H213.949V40.1634C212.835 39.5065 212.19 38.3562 212.016 35.8137V5.18626C212.19 2.64378 212.835 1.49672 213.949 0.836592V0.627441H203.632V0.836592C204.747 1.49672 205.392 2.64378 205.566 5.18626V17.6765H185.066V5.18626C185.241 2.64378 185.885 1.49672 187 0.836592V0.627441H176.686V0.836592C177.801 1.49672 178.446 2.64378 178.62 5.18626V35.817C178.446 38.3595 177.801 39.5065 176.686 40.1667V40.3758H187V40.1667C185.885 39.5098 185.241 38.3595 185.066 35.817V23.3268V23.3235Z" fill="black"/>
<path d="M111.057 0.627441L112.45 3.62417L97.9636 34.781C96.3185 38.2157 95.365 39.6405 94.0758 40.1601V40.3693H104.604V40.1601C103.476 39.3562 103.698 37.8464 104.557 35.6144L107.666 28.9281H124.215L127.323 35.6144C128.183 37.8464 128.405 39.3529 127.276 40.1601V40.3693H137.805V40.1601C136.516 39.6405 135.562 38.2157 133.917 34.7843L118.037 0.627441H111.057ZM110.295 23.2843L115.942 11.1372L121.589 23.2843H110.295Z" fill="black"/>
</g>
<defs>
<clipPath id="clip0_1_80">
<rect width="325" height="41" fill="white"/>
</clipPath>
</defs>
</svg>
