<svg width="16" height="16" viewBox="0 0 16 16" fill="none" xmlns="http://www.w3.org/2000/svg">
<path d="M7.28711 3.00391C7.51187 2.31356 8.48813 2.31356 8.71289 3.00391L9.33398 4.91406C9.50131 5.42903 9.98101 5.77824 10.5225 5.77832H12.5312C13.2574 5.77873 13.5593 6.70781 12.9717 7.13477L11.3467 8.31543C10.9089 8.63379 10.7253 9.19803 10.8926 9.71289L11.5137 11.6221C11.7382 12.313 10.9472 12.8879 10.3594 12.4609L8.73438 11.2803C8.29642 10.9623 7.70358 10.9623 7.26562 11.2803L5.64062 12.4609C5.05285 12.8879 4.26182 12.313 4.48633 11.6221L5.10742 9.71289C5.27471 9.19803 5.09112 8.63379 4.65332 8.31543L3.02832 7.13477C2.44067 6.70781 2.74255 5.77873 3.46875 5.77832H5.47754C6.01899 5.77824 6.49869 5.42903 6.66602 4.91406L7.28711 3.00391Z" fill="white" stroke="black" stroke-width="0.5"/>
</svg>
