<svg width="28" height="29" viewBox="0 0 28 29" fill="none" xmlns="http://www.w3.org/2000/svg">
<g clip-path="url(#clip0_6_159)">
<path d="M14.0257 12.3772C10.4301 12.3772 7.50609 9.6016 7.50609 6.18858C7.50609 2.77556 10.4333 0 14.0257 0C17.6181 0 20.5453 2.77556 20.5453 6.18858C20.5453 9.6016 17.6213 12.3772 14.0257 12.3772ZM14.0257 1.54638C11.3298 1.54638 9.13519 3.62957 9.13519 6.18858C9.13519 8.74758 11.3298 10.8277 14.0257 10.8277C16.7216 10.8277 18.9162 8.74453 18.9162 6.18553C18.9162 3.62652 16.7248 1.54638 14.0257 1.54638Z" fill="black"/>
<path d="M28 29H0L1.84439 19.6943C2.56736 16.9462 5.11223 15.0582 8.04912 15.0582H19.9509C22.8878 15.0582 25.4359 16.9462 26.146 19.6516L28 29ZM1.96649 27.4536H26.0367L24.5554 19.981C24.0349 18.0106 22.1391 16.6045 19.9509 16.6045H8.04912C5.86091 16.6045 3.96511 18.0106 3.43493 20.0267L1.96649 27.4536Z" fill="black"/>
</g>
<defs>
<clipPath id="clip0_6_159">
<rect width="28" height="29" fill="white"/>
</clipPath>
</defs>
</svg>
