<svg width="20" height="20" viewBox="0 0 20 20" fill="none" xmlns="http://www.w3.org/2000/svg">
<g clip-path="url(#clip0_6_162)">
<path d="M20 19.2285L14.3231 13.5515C15.5813 12.1148 16.3443 10.2338 16.3443 8.17216C16.3443 3.65994 12.6865 0 8.17216 0C3.65781 0 0 3.65994 0 8.17216C0 12.6844 3.65994 16.3443 8.17216 16.3443C10.2338 16.3443 12.1148 15.5792 13.5515 14.3209L19.2285 20L20 19.2285ZM1.09033 8.17216C1.09033 4.26567 4.2678 1.09033 8.17216 1.09033C12.0765 1.09033 15.2561 4.2678 15.2561 8.17216C15.2561 12.0765 12.0786 15.2561 8.17216 15.2561C4.26567 15.2561 1.09033 12.0786 1.09033 8.17216Z" fill="black"/>
</g>
<defs>
<clipPath id="clip0_6_162">
<rect width="20" height="20" fill="white"/>
</clipPath>
</defs>
</svg>
