<svg width="30" height="30" viewBox="0 0 30 30" fill="none" xmlns="http://www.w3.org/2000/svg">
<rect x="0.5" y="0.5" width="29" height="29" rx="14.5" stroke="#C2C2C2"/>
<path d="M9.3 22.5C9.3 20.26 9.3 17.9933 9.3 15.7C9.3 13.4067 9.3 11.14 9.3 8.9C9.88667 8.9 10.4733 8.9 11.06 8.9C11.66 8.9 12.2467 8.9 12.82 8.9C13.5267 10.1667 14.24 11.4467 14.96 12.74C15.6933 14.0333 16.4133 15.3133 17.12 16.58C17.12 15.3133 17.12 14.0333 17.12 12.74C17.12 11.4467 17.12 10.1667 17.12 8.9C17.6933 8.9 18.2667 8.9 18.84 8.9C19.4133 8.9 19.9867 8.9 20.56 8.9C20.56 11.14 20.56 13.4067 20.56 15.7C20.56 17.9933 20.56 20.26 20.56 22.5C19.9867 22.5 19.4 22.5 18.8 22.5C18.2133 22.5 17.6267 22.5 17.04 22.5C16.3333 21.2333 15.6133 19.9533 14.88 18.66C14.16 17.3667 13.4467 16.0867 12.74 14.82C12.74 16.0867 12.74 17.3667 12.74 18.66C12.74 19.9533 12.74 21.2333 12.74 22.5C12.1667 22.5 11.5933 22.5 11.02 22.5C10.4467 22.5 9.87333 22.5 9.3 22.5Z" fill="#C2C2C2"/>
</svg>
