<svg width="30" height="30" viewBox="0 0 30 30" fill="none" xmlns="http://www.w3.org/2000/svg">
<rect x="0.5" y="0.5" width="29" height="29" rx="14.5" stroke="#C2C2C2"/>
<g clip-path="url(#clip0_593_1234)">
<path d="M15 7C12.8273 7 12.5549 7.00917 11.7017 7.04811C10.8501 7.08693 10.2686 7.22219 9.75968 7.42005C9.2336 7.62443 8.78752 7.89792 8.34272 8.34272C7.89792 8.78752 7.62443 9.2336 7.42005 9.75968C7.22219 10.2685 7.08693 10.8501 7.048 11.7017C7.00917 12.555 7 12.8272 7 15C7 17.1728 7.00917 17.4451 7.04811 18.2983C7.08693 19.1499 7.22219 19.7314 7.42005 20.2403C7.62443 20.7664 7.89792 21.2125 8.34272 21.6573C8.78752 22.1021 9.2336 22.3756 9.75968 22.5799C10.2685 22.7778 10.8501 22.9131 11.7017 22.9519C12.555 22.9908 12.8273 23 15 23C17.1727 23 17.4451 22.9908 18.2983 22.9519C19.1499 22.9131 19.7314 22.7778 20.2403 22.5801C20.7664 22.3756 21.2125 22.1021 21.6573 21.6574C22.1021 21.2126 22.3756 20.7664 22.5799 20.2403C22.7778 19.7315 22.9131 19.1499 22.9519 18.2983C22.9908 17.445 23 17.1727 23 15C23 12.8273 22.9908 12.5549 22.9519 11.7017C22.9131 10.8501 22.7778 10.2686 22.5801 9.75968C22.3756 9.2336 22.1021 8.78752 21.6574 8.34272C21.2126 7.89792 20.7664 7.62443 20.2403 7.42005C19.7315 7.22219 19.1499 7.08693 18.2983 7.04811C17.445 7.00917 17.1728 7 15 7ZM15 8.44139C17.1361 8.44139 17.3891 8.4496 18.2326 8.48811C19.0127 8.52363 19.4363 8.65397 19.7182 8.76352C20.0915 8.90859 20.3582 9.08203 20.638 9.36192C20.918 9.64192 21.0913 9.90837 21.2364 10.2818C21.346 10.5637 21.4764 10.9873 21.5119 11.7674C21.5504 12.6109 21.5586 12.8639 21.5586 15C21.5586 17.1361 21.5504 17.3891 21.5119 18.2326C21.4764 19.0127 21.346 19.4363 21.2365 19.7182C21.0914 20.0915 20.918 20.3582 20.6381 20.638C20.3581 20.918 20.0916 21.0913 19.7182 21.2364C19.4363 21.346 19.0127 21.4764 18.2326 21.5119C17.3892 21.5504 17.1362 21.5586 15 21.5586C12.8638 21.5586 12.6108 21.5504 11.7674 21.5119C10.9873 21.4764 10.5637 21.346 10.2818 21.2365C9.90848 21.0914 9.64181 20.918 9.36203 20.6381C9.08203 20.3581 8.90869 20.0916 8.76363 19.7182C8.65397 19.4363 8.52363 19.0127 8.48811 18.2326C8.4496 17.3891 8.44139 17.1361 8.44139 15C8.44139 12.8639 8.4496 12.6109 8.48811 11.7674C8.52363 10.9873 8.65397 10.5637 8.76352 10.2818C8.90859 9.90848 9.08203 9.64181 9.36192 9.36203C9.64192 9.08203 9.90837 8.90869 10.2818 8.76363C10.5637 8.65397 10.9873 8.52363 11.7674 8.48811C12.6109 8.4496 12.8639 8.44139 15 8.44139ZM15 10.8919C12.7312 10.8919 10.8919 12.7311 10.8919 15C10.8919 17.2688 12.7311 19.1081 15 19.1081C17.2688 19.1081 19.1081 17.2689 19.1081 15C19.1081 12.7312 17.2689 10.8919 15 10.8919ZM15 17.6667C13.5273 17.6667 12.3333 16.4727 12.3333 15C12.3333 13.5273 13.5273 12.3333 15 12.3333C16.4727 12.3333 17.6667 13.5273 17.6667 15C17.6667 16.4727 16.4727 17.6667 15 17.6667ZM20.2304 10.7296C20.2304 10.9842 20.1293 11.2284 19.9492 11.4084C19.7692 11.5885 19.525 11.6896 19.2704 11.6896C19.0158 11.6896 18.7716 11.5885 18.5916 11.4084C18.4115 11.2284 18.3104 10.9842 18.3104 10.7296C18.3104 10.475 18.4115 10.2308 18.5916 10.0508C18.7716 9.87074 19.0158 9.7696 19.2704 9.7696C19.525 9.7696 19.7692 9.87074 19.9492 10.0508C20.1293 10.2308 20.2304 10.475 20.2304 10.7296Z" fill="#C2C2C2"/>
</g>
<defs>
<clipPath id="clip0_593_1234">
<rect width="16" height="16" fill="white" transform="translate(7 7)"/>
</clipPath>
</defs>
</svg>
